<svg width="100" height="50" viewBox="0 0 100 50" fill="none" xmlns="http://www.w3.org/2000/svg">
<path d="M32.6667 31.75C31.25 33.6666 29.4167 35.6666 27 37.1666C24.6667 38.6666 22 39.8333 18.8333 39.8333C15.9167 39.8333 13.5 38.3333 12.1667 37.0833C10.1667 35.1666 9.08334 32.4166 8.75 29.8333C7.83334 21.8333 12.75 11.3333 20.3333 6.66665C22.0833 5.58331 24 5.08331 25.8333 5.08331C29.5 5.08331 32.25 7.66665 32.5833 10.8333C32.9167 13.6666 31.8333 16.0833 28.6667 17.6666C27.0833 18.5 26.25 18.4166 26 18.0833C25.8333 17.8333 25.9167 17.4166 26.25 17.1666C29.1667 14.75 29.25 12.75 28.9167 9.91665C28.6667 8.08331 27.5 6.91665 26.1667 6.91665C20.4167 6.91665 12.0833 19.8333 13.25 29.1666C13.6667 32.8333 15.9167 37.0833 20.5833 37.0833C22.0833 37.0833 23.75 36.6666 25.1667 35.9166C28.4167 34.25 29.8333 33.0833 31.75 30.4166C32 30.0833 32.25 29.6666 32.5 29.3333C32.6667 29 33 28.9166 33.25 28.9166C33.5 28.9166 33.8333 29.1666 33.8333 29.5833C33.8333 29.8333 33.75 30.3333 33.4167 30.75C33.25 30.9166 32.9167 31.4166 32.6667 31.75Z" fill="#24BECA"/>
<path d="M41.4168 36.5C40.0001 36.5 39.1668 35.75 38.8334 34.5833C37.9168 35.8333 36.5834 36.5 35.2501 36.5C33.0001 36.5 30.9168 34.5833 30.5834 32.0833C30.0834 27.6667 33.8334 22 39.5001 22C41.9168 22 43.9168 23 44.1668 24.9167C44.5001 27.3333 42.4168 27.8333 41.6668 27.8333C41.0001 27.8333 39.9168 27.6667 39.8334 27C39.7501 26.3333 41.2501 26.75 41.0834 25.1667C41.0001 24.1667 40.0001 23.8333 39.0001 23.8333C35.5001 23.8333 33.5834 28.6667 34.0001 31.6667C34.1668 33 34.8334 34.3333 36.0834 34.3333C37.0834 34.3333 38.5834 32.9167 39.0834 30.75C39.4168 29.3333 40.8334 28.3333 41.8334 28.3333C42.3334 28.3333 42.7501 28.5833 42.8334 29.0833C42.8334 29.25 42.8334 29.5 42.7501 29.8333C42.6668 30.5 42.1668 32.5 42.1668 33C42.1668 33.4167 42.4168 33.9167 43.0834 33.9167C43.8334 33.9167 47.2501 31.9167 49.1668 29.25C49.3334 29 49.6668 28.8333 49.9168 28.8333C50.1668 28.8333 50.5001 29 50.5001 29.3333C50.5834 29.6667 50.4168 30.0833 50.0001 30.6667C47.8334 33.8333 43.0834 36.5 41.4168 36.5Z" fill="#24BECA"/>
<path d="M89.1667 34.8333C89.3334 36.25 90.0001 37.1666 90.5834 37.6666C90.8334 37.8333 90.9167 38.0833 90.9167 38.25C91.0001 38.6666 90.6667 39 90.1667 39C90.0001 39 89.8334 39 89.6667 38.9166C87.1667 37.9166 86.1667 36.25 85.8334 34.6666C84.9167 35.8333 83.5834 36.5833 82.3334 36.5833C80.0834 36.5833 78.0001 34.6666 77.6667 32.1666C77.1667 27.8333 81.0834 22.1666 86.6667 22.1666C89.0001 22.1666 91.0834 23.0833 91.3334 25C91.6667 27.4166 89.5001 27.9166 88.8334 27.9166C88.0834 27.9166 87.0001 27.75 86.9167 27.0833C86.8334 26.5 88.4167 26.8333 88.2501 25.3333C88.1667 24.3333 87.0834 24 86.1667 24C82.9167 24 80.7501 28.25 81.1667 31.75C81.3334 33.1666 82.0001 34.5 83.2501 34.5C84.2501 34.5 85.7501 33.0833 86.3334 30.9166C86.6667 29.5 88.0834 28.5 89.0834 28.5C89.5834 28.5 90.0001 28.75 90.0834 29.3333C90.0834 29.5833 90.0001 30.25 89.5001 32.5C89.0834 33.3333 89.0834 34.1666 89.1667 34.8333Z" fill="#24BECA"/>
<path d="M59.1666 34C59.9166 34 62.4166 33.0833 64.4166 30.3333C64.6666 30.0833 64.9166 29.9166 65.1666 29.9166C65.4999 29.9166 65.7499 30.0833 65.8333 30.4166C65.8333 30.6666 65.6666 31.1666 65.2499 31.75C62.9999 34.9166 59.1666 36.5 57.4999 36.5C55.7499 36.5 54.8332 35.4166 54.6666 33.8333C54.5832 33.3333 54.5832 32.6666 54.7499 32C55.3332 28.4166 56.6666 26.25 56.5833 25.5833C56.5833 25.4166 56.4166 25.3333 56.3332 25.3333C55.2499 25.3333 51.3333 29.3333 50.7499 32L50.2499 34.0833C49.9166 35.5833 48.4999 36.5 47.4999 36.5C46.9999 36.5 46.6666 36.25 46.5833 35.75C46.5833 35.5833 46.5833 35.3333 46.6666 35C46.6666 35 48.5833 25.1666 48.6666 24.6666C48.9166 23.5 49.3333 22.3333 51.6666 22.3333C52.1666 22.3333 52.4999 22.5833 52.5832 23.1666C52.5832 23.3333 52.5833 23.5833 52.4999 23.9166L51.8333 26.9166C53.9166 24.1666 57.0833 22.1666 59.0833 22.1666C59.9166 22.1666 60.4999 22.5833 60.6666 23.5C60.7499 24 60.5833 24.8333 60.2499 25.75C59.5833 27.6666 58.8333 30.4166 58.2499 32.8333C58.0833 33.1666 58.2499 34 59.1666 34Z" fill="#24BECA"/>
<path d="M72.3333 22.5C72.3333 23.8333 72.9999 25.25 73.8333 26.1666C74.1666 25.25 74.3333 24.3333 74.3333 23.4166C74.3333 21.6666 73.6666 20.9166 73.1666 20.9166C72.5833 20.9166 72.3333 21.75 72.3333 22.5ZM75.3333 29.6666C75.0833 29.6666 74.8333 29.6666 74.4999 29.5833C72.3333 32.75 70.0833 34.9166 68.3333 35.8333C67.5833 36.25 66.9166 36.4166 66.4166 36.4166C65.9999 36.4166 65.5833 36.3333 65.4166 36C64.6666 34.6666 64.3333 32.0833 64.3333 29.3333C64.3333 27.3333 64.4999 25.6666 64.8333 24.5C65.2499 23.25 66.8333 22.0833 67.8333 22.0833C68.3333 22.0833 68.7499 22.3333 68.7499 22.9166C68.7499 23.0833 68.6666 23.3333 68.5833 23.5833C67.8333 25.6666 67.4999 27.6666 67.4999 29.6666C67.4999 30.75 67.7499 32.5833 67.9999 33.5C68.0833 33.6666 68.0833 33.9166 68.2499 33.9166C68.5833 33.9166 70.8333 31.6666 72.4999 29C71.0833 28.0833 70.2499 26.4166 70.2499 24.3333C70.2499 20.8333 72.3333 19.0833 74.3333 19.0833C75.9166 19.0833 77.3333 20.25 77.3333 22.5833C77.3333 24 76.7499 25.6666 75.9166 27.25C75.9166 27.25 76.2499 27.3333 76.4166 27.3333C77.6666 27.3333 78.6666 26.75 79.1666 26.1666C79.5833 25.75 79.9166 25.4166 80.2499 25.4166C80.4999 25.4166 80.5833 25.5833 80.5833 25.8333C80.5833 26 80.4999 26.25 80.4166 26.5C79.2499 28.4166 77.0833 29.6666 75.3333 29.6666Z" fill="#24BECA"/>
</svg>
