<svg width="80" height="40" viewBox="0 0 80 40" fill="none" xmlns="http://www.w3.org/2000/svg">
<path d="M26.1334 25.4C25.0001 26.9333 23.5334 28.5333 21.6001 29.7333C19.7334 30.9333 17.6001 31.8667 15.0667 31.8667C12.7334 31.8667 10.8001 30.6667 9.73339 29.6667C8.13339 28.1333 7.26672 25.9333 7.00005 23.8667C6.26672 17.4667 10.2001 9.06667 16.2667 5.33333C17.6667 4.46667 19.2001 4.06667 20.6667 4.06667C23.6001 4.06667 25.8001 6.13333 26.0667 8.66667C26.3334 10.9333 25.4667 12.8667 22.9334 14.1333C21.6667 14.8 21.0001 14.7333 20.8001 14.4667C20.6667 14.2667 20.7334 13.9333 21.0001 13.7333C23.3334 11.8 23.4001 10.2 23.1334 7.93333C22.9334 6.46667 22.0001 5.53333 20.9334 5.53333C16.3334 5.53333 9.66672 15.8667 10.6001 23.3333C10.9334 26.2667 12.7334 29.6667 16.4667 29.6667C17.6667 29.6667 19.0001 29.3333 20.1334 28.7333C22.7334 27.4 23.8667 26.4667 25.4 24.3333C25.6 24.0667 25.8001 23.7333 26.0001 23.4667C26.1334 23.2 26.4001 23.1333 26.6001 23.1333C26.8001 23.1333 27.0667 23.3333 27.0667 23.6667C27.0667 23.8667 27 24.2667 26.7334 24.6C26.6 24.7333 26.3334 25.1333 26.1334 25.4Z" fill="white"/>
<path d="M33.1335 29.2C32.0002 29.2 31.3335 28.6 31.0668 27.6667C30.3335 28.6667 29.2668 29.2 28.2002 29.2C26.4002 29.2 24.7335 27.6667 24.4668 25.6667C24.0668 22.1333 27.0668 17.6 31.6002 17.6C33.5335 17.6 35.1335 18.4 35.3335 19.9333C35.6002 21.8667 33.9335 22.2667 33.3335 22.2667C32.8002 22.2667 31.9335 22.1333 31.8668 21.6C31.8002 21.0667 33.0002 21.4 32.8668 20.1333C32.8002 19.3333 32.0002 19.0667 31.2002 19.0667C28.4002 19.0667 26.8668 22.9333 27.2002 25.3333C27.3335 26.4 27.8668 27.4667 28.8668 27.4667C29.6668 27.4667 30.8668 26.3333 31.2668 24.6C31.5335 23.4667 32.6668 22.6667 33.4668 22.6667C33.8668 22.6667 34.2002 22.8667 34.2668 23.2667C34.2668 23.4 34.2668 23.6 34.2002 23.8667C34.1335 24.4 33.7335 26 33.7335 26.4C33.7335 26.7333 33.9335 27.1333 34.4668 27.1333C35.0668 27.1333 37.8002 25.5333 39.3335 23.4C39.4668 23.2 39.7335 23.0667 39.9335 23.0667C40.1335 23.0667 40.4002 23.2 40.4002 23.4667C40.4668 23.7333 40.3335 24.0667 40.0002 24.5333C38.2668 27.0667 34.4668 29.2 33.1335 29.2Z" fill="white"/>
<path d="M71.3335 27.8667C71.4668 29 72.0002 29.7333 72.4668 30.1333C72.6668 30.2667 72.7335 30.4667 72.7335 30.6C72.8002 30.9333 72.5335 31.2 72.1335 31.2C72.0002 31.2 71.8668 31.2 71.7335 31.1333C69.7335 30.3333 68.9335 29 68.6668 27.7333C67.9335 28.6667 66.8668 29.2667 65.8668 29.2667C64.0668 29.2667 62.4002 27.7333 62.1335 25.7333C61.7335 22.2667 64.8668 17.7333 69.3335 17.7333C71.2002 17.7333 72.8668 18.4667 73.0668 20C73.3335 21.9333 71.6002 22.3333 71.0668 22.3333C70.4668 22.3333 69.6002 22.2 69.5335 21.6667C69.4668 21.2 70.7335 21.4667 70.6002 20.2667C70.5335 19.4667 69.6668 19.2 68.9335 19.2C66.3335 19.2 64.6002 22.6 64.9335 25.4C65.0668 26.5333 65.6002 27.6 66.6002 27.6C67.4002 27.6 68.6002 26.4667 69.0668 24.7333C69.3335 23.6 70.4668 22.8 71.2668 22.8C71.6668 22.8 72.0002 23 72.0668 23.4667C72.0668 23.6667 72.0002 24.2 71.6002 26C71.2668 26.6667 71.2668 27.3333 71.3335 27.8667Z" fill="white"/>
<path d="M47.3333 27.2C47.9333 27.2 49.9333 26.4667 51.5333 24.2667C51.7333 24.0667 51.9333 23.9333 52.1333 23.9333C52.3999 23.9333 52.5999 24.0667 52.6666 24.3333C52.6666 24.5333 52.5333 24.9333 52.1999 25.4C50.3999 27.9333 47.3333 29.2 45.9999 29.2C44.5999 29.2 43.8666 28.3333 43.7333 27.0667C43.6666 26.6667 43.6666 26.1333 43.7999 25.6C44.2666 22.7333 45.3333 21 45.2666 20.4667C45.2666 20.3333 45.1333 20.2667 45.0666 20.2667C44.1999 20.2667 41.0666 23.4667 40.5999 25.6L40.1999 27.2667C39.9333 28.4667 38.7999 29.2 37.9999 29.2C37.5999 29.2 37.3333 29 37.2666 28.6C37.2666 28.4667 37.2666 28.2667 37.3333 28C37.3333 28 38.8666 20.1333 38.9333 19.7333C39.1333 18.8 39.4666 17.8667 41.3333 17.8667C41.7333 17.8667 41.9999 18.0667 42.0666 18.5333C42.0666 18.6667 42.0666 18.8667 41.9999 19.1333L41.4666 21.5333C43.1333 19.3333 45.6666 17.7333 47.2666 17.7333C47.9333 17.7333 48.3999 18.0667 48.5333 18.8C48.5999 19.2 48.4666 19.8667 48.1999 20.6C47.6666 22.1333 47.0666 24.3333 46.5999 26.2667C46.4666 26.5333 46.5999 27.2 47.3333 27.2Z" fill="white"/>
<path d="M57.8668 18C57.8668 19.0667 58.4001 20.2 59.0668 20.9333C59.3335 20.2 59.4668 19.4667 59.4668 18.7333C59.4668 17.3333 58.9335 16.7333 58.5335 16.7333C58.0668 16.7333 57.8668 17.4 57.8668 18ZM60.2668 23.7333C60.0668 23.7333 59.8668 23.7333 59.6001 23.6667C57.8668 26.2 56.0668 27.9333 54.6668 28.6667C54.0668 29 53.5335 29.1333 53.1335 29.1333C52.8001 29.1333 52.4668 29.0667 52.3335 28.8C51.7335 27.7333 51.4668 25.6667 51.4668 23.4667C51.4668 21.8667 51.6001 20.5333 51.8668 19.6C52.2001 18.6 53.4668 17.6667 54.2668 17.6667C54.6668 17.6667 55.0001 17.8667 55.0001 18.3333C55.0001 18.4667 54.9335 18.6667 54.8668 18.8667C54.2668 20.5333 54.0001 22.1333 54.0001 23.7333C54.0001 24.6 54.2001 26.0667 54.4001 26.8C54.4668 26.9333 54.4668 27.1333 54.6001 27.1333C54.8668 27.1333 56.6668 25.3333 58.0001 23.2C56.8668 22.4667 56.2001 21.1333 56.2001 19.4667C56.2001 16.6667 57.8668 15.2667 59.4668 15.2667C60.7335 15.2667 61.8668 16.2 61.8668 18.0667C61.8668 19.2 61.4001 20.5333 60.7335 21.8C60.7335 21.8 61.0001 21.8667 61.1335 21.8667C62.1335 21.8667 62.9335 21.4 63.3335 20.9333C63.6668 20.6 63.9335 20.3333 64.2001 20.3333C64.4001 20.3333 64.4668 20.4667 64.4668 20.6667C64.4668 20.8 64.4001 21 64.3335 21.2C63.4001 22.7333 61.6668 23.7333 60.2668 23.7333Z" fill="white"/>
</svg>
