<svg width="54" height="52" viewBox="0 0 54 52" fill="none" xmlns="http://www.w3.org/2000/svg">
<rect width="54" height="52" rx="8" fill="white"/>
<path d="M35.1212 31.8969C34.679 30.8496 34.0374 29.8984 33.2321 29.0961C32.4292 28.2915 31.4781 27.65 30.4313 27.207C30.4219 27.2023 30.4126 27.2 30.4032 27.1953C31.8633 26.1406 32.8126 24.4227 32.8126 22.4844C32.8126 19.2734 30.211 16.6719 27.0001 16.6719C23.7891 16.6719 21.1876 19.2734 21.1876 22.4844C21.1876 24.4227 22.1368 26.1406 23.5969 27.1977C23.5876 27.2023 23.5782 27.2047 23.5688 27.2094C22.5188 27.6523 21.5766 28.2875 20.768 29.0984C19.9634 29.9013 19.3219 30.8524 18.879 31.8992C18.4438 32.924 18.2091 34.0228 18.1876 35.1359C18.1869 35.161 18.1913 35.1858 18.2005 35.2091C18.2096 35.2324 18.2233 35.2537 18.2408 35.2716C18.2583 35.2895 18.2791 35.3037 18.3022 35.3134C18.3253 35.3231 18.35 35.3281 18.3751 35.3281H19.7813C19.8844 35.3281 19.9665 35.2461 19.9688 35.1453C20.0157 33.3359 20.7422 31.6414 22.0266 30.357C23.3555 29.0281 25.1204 28.2969 27.0001 28.2969C28.8797 28.2969 30.6446 29.0281 31.9735 30.357C33.2579 31.6414 33.9844 33.3359 34.0313 35.1453C34.0337 35.2484 34.1157 35.3281 34.2188 35.3281H35.6251C35.6501 35.3281 35.6749 35.3231 35.6979 35.3134C35.721 35.3037 35.7419 35.2895 35.7593 35.2716C35.7768 35.2537 35.7905 35.2324 35.7997 35.2091C35.8088 35.1858 35.8132 35.161 35.8126 35.1359C35.7891 34.0156 35.5571 32.9258 35.1212 31.8969ZM27.0001 26.5156C25.9243 26.5156 24.9118 26.0961 24.1501 25.3344C23.3883 24.5727 22.9688 23.5602 22.9688 22.4844C22.9688 21.4086 23.3883 20.3961 24.1501 19.6344C24.9118 18.8727 25.9243 18.4531 27.0001 18.4531C28.0758 18.4531 29.0883 18.8727 29.8501 19.6344C30.6118 20.3961 31.0313 21.4086 31.0313 22.4844C31.0313 23.5602 30.6118 24.5727 29.8501 25.3344C29.0883 26.0961 28.0758 26.5156 27.0001 26.5156Z" fill="#0D153A"/>
</svg>
