<svg width="51" height="52" viewBox="0 0 51 52" fill="none" xmlns="http://www.w3.org/2000/svg">
<rect width="51" height="52" rx="8" fill="white"/>
<g clip-path="url(#clip0_33_396)">
<path d="M22.5 19.25C22.5 17.5953 23.8453 16.25 25.5 16.25C27.1547 16.25 28.5 17.5953 28.5 19.25V21.5H22.5V19.25ZM20.25 21.5H17.25C16.0078 21.5 15 22.5078 15 23.75V33.5C15 35.9844 17.0156 38 19.5 38H31.5C33.9844 38 36 35.9844 36 33.5V23.75C36 22.5078 34.9922 21.5 33.75 21.5H30.75V19.25C30.75 16.3484 28.4016 14 25.5 14C22.5984 14 20.25 16.3484 20.25 19.25V21.5ZM21.375 26C20.7516 26 20.25 25.4984 20.25 24.875C20.25 24.2516 20.7516 23.75 21.375 23.75C21.9984 23.75 22.5 24.2516 22.5 24.875C22.5 25.4984 21.9984 26 21.375 26ZM30.75 24.875C30.75 25.4984 30.2484 26 29.625 26C29.0016 26 28.5 25.4984 28.5 24.875C28.5 24.2516 29.0016 23.75 29.625 23.75C30.2484 23.75 30.75 24.2516 30.75 24.875Z" fill="#0D153A"/>
</g>
<defs>
<clipPath id="clip0_33_396">
<rect x="15" y="14" width="21" height="24" fill="white"/>
</clipPath>
</defs>
</svg>
