<svg width="80" height="80" viewBox="0 0 80 80" fill="none" xmlns="http://www.w3.org/2000/svg">
<g clip-path="url(#clip0_38_13)">
<path d="M12.695 53.51L12.295 51.115L12.695 53.51ZM31.345 19.35C34.7075 18.23 37.63 17.55 40.275 17.2675L46.41 16.8675C47.8874 16.866 49.3621 16.9931 50.8175 17.2475L51.25 14.6475C51.25 14.6475 47.26 13.3975 42 13.8475L41.5875 12.435C42.4487 12.2418 43.209 11.739 43.7239 11.022C44.2387 10.305 44.4721 9.42383 44.3799 8.54599C44.2876 7.66815 43.8761 6.8548 43.2234 6.26051C42.5708 5.66621 41.7226 5.33239 40.84 5.32249C39.8869 5.32382 38.9733 5.703 38.2994 6.37691C37.6255 7.05081 37.2463 7.96445 37.245 8.91749C37.2461 9.74029 37.5291 10.5379 38.0467 11.1774C38.5644 11.817 39.2855 12.2599 40.09 12.4325L40.5475 14.0025C34.9875 14.77 30.5575 16.9425 30.5575 16.9425L31.345 19.35ZM15.5675 30L15.9525 29.5L13.2025 27.51C13.1025 27.6425 10.495 30.0425 8.43498 34.51C8.34403 34.3666 8.24116 34.2311 8.12748 34.105C7.50998 33.4225 6.64248 33.085 5.54748 33.105C4.81498 33.105 4.34748 32.875 4.04248 32.605C4.34748 32.2175 4.52998 31.73 4.52998 31.2C4.52998 30.9009 4.47107 30.6048 4.35661 30.3284C4.24216 30.0521 4.0744 29.801 3.86291 29.5896C3.65143 29.3781 3.40036 29.2103 3.12404 29.0959C2.84772 28.9814 2.55156 28.9225 2.25248 28.9225C1.95339 28.9225 1.65723 28.9814 1.38092 29.0959C1.1046 29.2103 0.853527 29.3781 0.642041 29.5896C0.430556 29.801 0.262796 30.0521 0.148341 30.3284C0.0338862 30.6048 -0.025023 30.9009 -0.025023 31.2C-0.025352 31.4992 0.0333328 31.7955 0.147671 32.0719C0.26201 32.3484 0.429757 32.5996 0.641308 32.8112C0.852859 33.0227 1.10406 33.1905 1.38053 33.3048C1.65699 33.4191 1.9533 33.4778 2.25248 33.4775C2.44332 33.478 2.63337 33.4528 2.81748 33.4025C3.37748 34.0275 4.26748 34.5675 5.56748 34.545C6.23498 34.535 6.72248 34.705 7.05498 35.045C7.42998 35.46 7.55998 36.0525 7.59748 36.5C6.10498 40.5675 6.53248 45.605 6.53248 45.605L10.1275 45.7475C10.2025 43.9125 10.465 40.705 11.3925 38.1525C13.185 33.2275 15.425 30.1325 15.5175 30.0025L15.5675 30ZM77.75 19.875C77.4508 19.8747 77.1545 19.9333 76.878 20.0477C76.6016 20.162 76.3504 20.3298 76.1388 20.5413C75.9273 20.7529 75.7595 21.0041 75.6452 21.2805C75.5308 21.557 75.4721 21.8533 75.4725 22.1525C75.4725 22.3475 75.4975 22.5375 75.5475 22.7175C75.1662 23.0639 74.8661 23.4903 74.6686 23.9661C74.4711 24.4419 74.3811 24.9554 74.405 25.47C74.415 26.1375 74.2425 26.625 73.905 26.9575C73.6174 27.2012 73.2708 27.365 72.9 27.4325C70.2175 23.6875 66.92 21.3925 66.92 21.3925L64.3375 24.1625C66.2875 25.9425 68.2825 28.1625 70.2225 30.9125C71.56 32.825 72.9375 35.3025 74.0875 37.7625L77.575 36.1125C77.575 36.1125 75.9825 32.1775 73.74 28.6525C74.155 28.5103 74.5374 28.2868 74.865 27.995C75.5475 27.3775 75.885 26.51 75.865 25.42C75.855 24.71 76.115 24.23 76.365 23.915C76.7525 24.22 77.24 24.4025 77.77 24.4025C78.3737 24.4025 78.9527 24.1627 79.3795 23.7358C79.8064 23.3089 80.0462 22.7299 80.0462 22.1262C80.0462 21.5225 79.8064 20.9436 79.3795 20.5167C78.9527 20.0898 78.3737 19.85 77.77 19.85L77.75 19.875Z" fill="#22D1EE"/>
<path d="M68.675 51.2C63.88 53.535 55.9825 56.625 45.595 58.0675C41.52 58.635 37.56 58.8475 33.9275 58.8475C29.195 58.8475 25.0475 58.4875 21.84 58.085L13.6 56.665C13.9758 58.0026 14.4651 59.3056 15.0625 60.56C15.07 60.5775 15.0675 60.5925 15.075 60.61L15.115 60.7025L15.365 61.16L15.615 61.7025C16.645 63.645 17.88 65.4525 19.29 66.9725C24.19 72.3375 29.1825 73.18 29.23 73.1875L29.305 73.2L29.38 73.225C29.4225 73.24 33.85 74.675 40.585 74.675C47.205 74.675 53.7025 73.34 59.895 70.7075C64.48 68.3625 68.82 64.795 70.965 61.615C72.63 59.1575 73.835 56.5325 74.545 53.8075C74.92 52.3575 75.22 50.0425 75.045 47.6C73.695 48.5 71.56 49.8 68.67 51.205L68.675 51.2ZM13.75 57.425L14.2 58.655L13.75 57.425ZM45.2 55.2175C55.1625 53.83 62.7 50.8875 67.32 48.66C71.1375 46.81 73.5875 45.16 74.5375 44.445C73.595 40.945 70.9875 35.455 68.5975 32.0375C61.7775 22.2875 54.4175 19.7825 50.64 19.1575C49.244 18.9066 47.8283 18.7811 46.41 18.7825C44.91 18.7825 43 18.9075 40.475 19.1725C37.95 19.4375 35.125 20.1025 31.8575 21.1725C27.2675 22.71 23.1175 25.1225 19.8525 28.1725L19.7425 28.2725C19.2575 28.7225 18.2475 29.6575 17.0875 31.1375C16.945 31.3375 14.8375 34.2875 13.1725 38.8C11.94 42.1875 11.9225 47.125 11.9225 47.175V47.19C11.9225 48.34 12.0375 49.49 12.165 50.635C12.1675 50.6525 12.195 50.6725 12.1975 50.69L12.2625 51.115L12.6725 53.51C15.055 54.11 29.28 57.43 45.1775 55.2175H45.2ZM58.85 28.8675C60.422 28.8721 61.9282 29.4986 63.0398 30.6102C64.1514 31.7217 64.7779 33.228 64.7825 34.8C64.7825 38.05 62.1275 40.7325 58.85 40.7325C55.5725 40.7325 52.9175 38.0775 52.9175 34.8C52.9175 31.5225 55.5725 28.8675 58.85 28.8675ZM21.2125 38.2175C21.2125 32.9225 25.505 28.63 30.8 28.63C36.095 28.63 40.3875 32.9225 40.3875 38.2175C40.3875 43.5125 36.095 47.805 30.8 47.805C25.505 47.805 21.2125 43.5125 21.2125 38.2175Z" fill="#22D1EE"/>
</g>
<defs>
<clipPath id="clip0_38_13">
<rect width="80" height="80" fill="white"/>
</clipPath>
</defs>
</svg>
