<svg width="40" height="40" viewBox="0 0 40 40" fill="none" xmlns="http://www.w3.org/2000/svg">
<path d="M20 0C8.95536 0 0 8.95536 0 20C0 31.0446 8.95536 40 20 40C31.0446 40 40 31.0446 40 20C40 8.95536 31.0446 0 20 0ZM21.6295 24.9464C19.6696 27.7054 15.7321 28.5089 12.6607 27.3259C9.58036 26.1518 7.39286 22.8973 7.65625 19.5804C7.72321 15.5223 11.4598 11.9643 15.5179 12.1027C17.4643 12.0134 19.2946 12.8571 20.7857 14.0491C20.1473 14.7723 19.4911 15.4688 18.7857 16.1161C16.9955 14.8795 14.4464 14.5268 12.6562 15.9554C10.0938 17.7277 9.97768 21.9107 12.442 23.817C14.8393 25.9911 19.3705 24.9107 20.0357 21.5804C18.5357 21.558 17.0268 21.5804 15.5268 21.5312C15.5223 20.6339 15.5179 19.7411 15.5223 18.8438C18.0313 18.8348 20.5446 18.8304 23.058 18.8527C23.2054 20.9643 22.9241 23.2054 21.6295 24.9464ZM32.4554 21.0938C31.7054 21.1027 30.9554 21.1071 30.2054 21.1116C30.1964 21.8616 30.192 22.6116 30.192 23.3616H27.9464C27.9375 22.6116 27.9375 21.8661 27.933 21.1161C27.183 21.1071 26.433 21.1027 25.683 21.0938V18.8571C26.433 18.8482 27.183 18.8438 27.933 18.8438C27.9375 18.0938 27.9464 17.3438 27.9509 16.5938H30.192L30.2054 18.8438C30.9554 18.8527 31.7054 18.8527 32.4554 18.8571V21.0938Z" fill="white"/>
</svg>
