<svg width="16" height="15" viewBox="0 0 16 15" fill="none" xmlns="http://www.w3.org/2000/svg">
<path d="M0 1.5C0 1.23478 0.105357 0.98043 0.292893 0.792893C0.48043 0.605357 0.734784 0.5 1 0.5H15C15.2652 0.5 15.5196 0.605357 15.7071 0.792893C15.8946 0.98043 16 1.23478 16 1.5C16 1.76522 15.8946 2.01957 15.7071 2.20711C15.5196 2.39464 15.2652 2.5 15 2.5H1C0.734784 2.5 0.48043 2.39464 0.292893 2.20711C0.105357 2.01957 0 1.76522 0 1.5ZM0 13.5C0 13.2348 0.105357 12.9804 0.292893 12.7929C0.48043 12.6054 0.734784 12.5 1 12.5H15C15.2652 12.5 15.5196 12.6054 15.7071 12.7929C15.8946 12.9804 16 13.2348 16 13.5C16 13.7652 15.8946 14.0196 15.7071 14.2071C15.5196 14.3946 15.2652 14.5 15 14.5H1C0.734784 14.5 0.48043 14.3946 0.292893 14.2071C0.105357 14.0196 0 13.7652 0 13.5ZM1 6.5C0.734784 6.5 0.48043 6.60536 0.292893 6.79289C0.105357 6.98043 0 7.23478 0 7.5C0 7.76522 0.105357 8.01957 0.292893 8.20711C0.48043 8.39464 0.734784 8.5 1 8.5H9C9.26522 8.5 9.51957 8.39464 9.70711 8.20711C9.89464 8.01957 10 7.76522 10 7.5C10 7.23478 9.89464 6.98043 9.70711 6.79289C9.51957 6.60536 9.26522 6.5 9 6.5H1Z" fill="#2A2A2A"/>
</svg>
