<svg width="87" height="109" viewBox="0 0 87 109" fill="none" xmlns="http://www.w3.org/2000/svg">
<g clip-path="url(#clip0_38_45)">
<path d="M2.73584 10.9144L34.0414 6.63719L34.0551 36.9313L2.76444 37.11L2.73584 10.9144ZM34.0265 40.4217L34.0508 70.7422L2.76014 66.4263L2.75838 40.2183L34.0265 40.4217ZM37.8214 6.07765L79.33 0V36.546L37.8214 36.8766V6.07765ZM79.3396 40.7069L79.3299 77.0883L37.8213 71.2109L37.7632 40.6388L79.3396 40.7069Z" fill="#00ADEF"/>
</g>
<path d="M4.59623 103.925L6.264 98.803L6.89434 96.5443H7.01253L7.656 98.803L9.42883 103.925H11.5168L13.723 95.126H12.1734L10.8602 100.694L10.4925 102.559H10.3875L9.88845 100.694L7.99743 95.126H5.9357L4.16287 100.694L3.69011 102.559H3.58506L3.19109 100.694L1.7597 95.126H0.183849L2.50823 103.925H4.59623ZM15.9764 103.925V95.126H14.5581V103.925H15.9764ZM18.708 103.925V100.694C18.708 99.2758 19.3514 98.5404 20.7828 98.5404C22.1354 98.5404 22.687 99.1576 22.687 100.379V103.925H24.1053V99.998C24.1053 98.4879 23.2123 97.2666 21.4001 97.2666C19.7454 97.2666 18.8787 98.3171 18.6817 99.4202H18.5898V97.3979H17.2897V103.925H18.708ZM28.2449 104.056C29.7157 104.056 30.6744 103.347 30.9501 102.047H31.0421V103.925H32.3421V95.126H30.9239V99.1707H30.8451C30.5824 98.0676 29.7026 97.2666 28.153 97.2666C26.1701 97.2666 25.0407 98.6323 25.0407 100.668C25.0407 102.677 26.1832 104.056 28.2449 104.056ZM26.4721 100.668C26.4721 99.0919 27.2863 98.5535 28.652 98.5535C30.1097 98.5535 30.9239 99.2364 30.9239 100.628V100.733C30.9239 102.099 30.0703 102.756 28.6783 102.756C27.2732 102.756 26.4721 102.23 26.4721 100.668ZM36.9891 104.056C39.169 104.056 40.6266 102.677 40.6266 100.668C40.6266 98.6323 39.169 97.2666 36.9891 97.2666C34.8223 97.2666 33.3646 98.6323 33.3646 100.668C33.3646 102.677 34.8223 104.056 36.9891 104.056ZM36.9891 102.795C35.4132 102.795 34.7566 102.047 34.7566 100.668C34.7566 99.2758 35.4132 98.5141 36.9891 98.5141C38.578 98.5141 39.2346 99.2758 39.2346 100.668C39.2346 102.047 38.578 102.795 36.9891 102.795ZM44.7813 103.925L46.2258 100.169L46.7248 98.5666H46.8299L47.3289 100.169L48.7603 103.925H50.52L52.503 97.3979H51.0584L49.9685 101.101L49.6664 102.782H49.5614L49.0755 100.97L47.6966 97.3979H45.8844L44.5187 100.97L44.0328 102.782H43.9277L43.6257 101.101L42.5357 97.3979H41.0649L43.0216 103.925H44.7813ZM56.3094 104.056C58.1479 104.056 59.3561 103.334 59.3561 102.112C59.3561 101.035 58.6469 100.51 57.0973 100.313L55.5871 100.103C54.6022 99.9718 54.3396 99.7879 54.3396 99.2758C54.3396 98.6586 54.7598 98.3959 55.9548 98.3959C57.3994 98.3959 57.7933 98.803 57.7933 99.5778V99.6566H59.1985V99.6172C59.1985 98.0676 57.9903 97.2666 55.9942 97.2666C53.985 97.2666 52.9476 98.0808 52.9476 99.2232C52.9476 100.313 53.6961 100.838 54.9305 100.996L56.7165 101.232C57.6489 101.364 57.9641 101.534 57.9641 102.073C57.9641 102.651 57.5832 102.913 56.3094 102.913C54.9437 102.913 54.4315 102.638 54.4315 101.784V101.679H53.0133V101.718C53.0133 103.229 54.2083 104.056 56.3094 104.056ZM64.0418 103.925V100.248H66.7339L69.2684 103.925H70.9493L67.8895 99.4728L70.9625 95.126H69.2815L66.7077 98.8818H64.0418V95.126H62.6236V103.925H64.0418ZM74.999 104.056C76.9426 104.056 78.3083 103.097 78.3083 101.705V101.587H76.89V101.692C76.89 102.467 76.3254 102.913 74.9596 102.913C73.4494 102.913 72.8322 102.244 72.7797 100.983H78.3214C78.3608 100.786 78.374 100.602 78.374 100.366C78.374 98.3828 76.9951 97.2666 74.9728 97.2666C72.8454 97.2666 71.4534 98.6323 71.4534 100.668C71.4534 102.848 72.8585 104.056 74.999 104.056ZM74.9465 98.3828C76.3385 98.3828 77.0345 98.9606 77.0345 100.169V100.195H72.7928C72.8716 99.0263 73.502 98.3828 74.9465 98.3828ZM80.4868 106.157C81.8263 106.157 82.5617 105.802 83.1001 104.634L86.5013 97.3979H84.9386L83.4021 100.852L82.7849 102.427H82.6799L82.0364 100.865L80.3686 97.3979H78.7796L81.997 103.925L81.8394 104.266C81.6424 104.712 81.406 104.87 80.8282 104.87H79.5544V106.157H80.4868Z" fill="#00ADEF"/>
<defs>
<clipPath id="clip0_38_45">
<rect width="76.6038" height="77.1509" fill="white" transform="translate(2.73584)"/>
</clipPath>
</defs>
</svg>
